<mxfile host="app.diagrams.net" modified="2024-02-22T09:20:48.573Z" agent="Mozilla/5.0 (Windows NT 10.0; Win64; x64) AppleWebKit/537.36 (KHTML, like Gecko) Chrome/120.0.0.0 Safari/537.36" version="23.1.5" etag="18Rwi-OxcMR1kLmaU_1M" type="github">
  <diagram name="第 1 页" id="03xhdupXSU5oWD8A2u2w">
    <mxGraphModel>
      <root>
        <mxCell id="0" />
        <mxCell id="1" parent="0" />
      </root>
    </mxGraphModel>
  </diagram>
</mxfile>
